<?xml version="1.0" encoding="UTF-8"?>
<!DOCTYPE svg PUBLIC "-//W3C//DTD SVG 1.1//EN" "http://www.w3.org/Graphics/SVG/1.1/DTD/svg11.dtd">
<!-- Creator: CorelDRAW 2019 (64-Bit) -->
<svg xmlns="http://www.w3.org/2000/svg" xml:space="preserve" width="27.0878mm" height="20.4672mm" version="1.1" style="shape-rendering:geometricPrecision; text-rendering:geometricPrecision; image-rendering:optimizeQuality; fill-rule:evenodd; clip-rule:evenodd"
viewBox="0 0 28.4 21.46"
 xmlns:xlink="http://www.w3.org/1999/xlink">
 <defs>
  <style type="text/css">
   <![CDATA[
    .fil0 {fill:#FEFEFE;fill-rule:nonzero}
    .fil1 {fill:#DCDDDD;fill-rule:nonzero}
   ]]>
  </style>
 </defs>
 <g id="Capa_x0020_1">
  <metadata id="CorelCorpID_0Corel-Layer"/>
  <path class="fil0" d="M10.48 16.98l0 -0.17c0,-0.04 -0.03,-0.08 -0.08,-0.08l-0.17 0c-0.08,0 -0.15,0.07 -0.15,0.15l0 0.17c0,0.04 0.03,0.08 0.08,0.08l0.17 0c0.08,0 0.15,-0.07 0.15,-0.15zm10.29 1.65c0,-0.44 0.25,-0.82 0.85,-0.82 0.55,0 0.85,0.3 0.85,0.82l-1.7 0zm2.09 0.01c0,-0.6 -0.39,-1.24 -1.24,-1.24 -0.73,0 -1.27,0.56 -1.27,1.29 0,0.76 0.52,1.29 1.27,1.29 0.37,0 0.72,-0.13 0.96,-0.36 0.02,-0.02 0.05,-0.05 0.09,-0.1 0.02,-0.03 0.03,-0.07 0.02,-0.1 -0.01,-0.03 -0.02,-0.05 -0.05,-0.07l-0.11 -0.09c-0.02,-0.02 -0.05,-0.03 -0.07,-0.03 -0.03,0 -0.07,0.01 -0.09,0.04 -0.05,0.05 -0.07,0.07 -0.08,0.08 -0.17,0.14 -0.43,0.25 -0.68,0.25 -0.43,0 -0.77,-0.26 -0.85,-0.66l2.07 0c0,0 0.02,-0.17 0.02,-0.3zm-11.49 -0.01c0,-0.44 0.25,-0.82 0.85,-0.82 0.55,0 0.85,0.3 0.85,0.82l-1.7 0zm2.09 0.01c0,-0.6 -0.39,-1.24 -1.24,-1.24 -0.73,0 -1.27,0.56 -1.27,1.29 0,0.76 0.52,1.29 1.27,1.29 0.37,0 0.72,-0.13 0.96,-0.36 0.02,-0.02 0.05,-0.05 0.09,-0.1 0.02,-0.03 0.03,-0.07 0.02,-0.1 -0.01,-0.03 -0.02,-0.05 -0.05,-0.07l-0.11 -0.09c-0.02,-0.02 -0.05,-0.03 -0.07,-0.03 -0.03,0 -0.07,0.01 -0.09,0.04 -0.05,0.05 -0.07,0.07 -0.08,0.08 -0.16,0.14 -0.43,0.25 -0.68,0.25 -0.43,0 -0.77,-0.26 -0.85,-0.66l2.07 0c0,0 0.02,-0.17 0.02,-0.3zm-10.6 -0.01c0,-0.44 0.25,-0.85 0.85,-0.85 0.55,0 0.85,0.32 0.85,0.85l-1.7 0zm2.09 0.01c0,-0.6 -0.39,-1.24 -1.24,-1.24 -0.73,0 -1.27,0.56 -1.27,1.29 0,0.76 0.52,1.29 1.27,1.29 0.37,0 0.72,-0.13 0.96,-0.36 0.02,-0.02 0.05,-0.05 0.09,-0.1 0.02,-0.03 0.03,-0.07 0.02,-0.1 -0.01,-0.03 -0.02,-0.05 -0.05,-0.07l-0.11 -0.09c-0.02,-0.02 -0.05,-0.03 -0.07,-0.03 -0.03,0 -0.07,0.01 -0.09,0.04 -0.05,0.05 -0.07,0.07 -0.08,0.08 -0.16,0.14 -0.43,0.25 -0.68,0.25 -0.43,0 -0.77,-0.26 -0.85,-0.66l2.07 0c0,0 0.02,-0.17 0.02,-0.3zm11.25 -0.13l0 1.41c0,0.04 -0.03,0.07 -0.08,0.07l-0.25 0c-0.04,0 -0.07,-0.03 -0.07,-0.07l0 -1.41c0,-0.22 -0.07,-0.4 -0.2,-0.53 -0.12,-0.12 -0.32,-0.19 -0.55,-0.19 -0.01,0 -0.01,0 -0.02,0 -0.43,0 -0.74,0.32 -0.74,0.76l0 1.37c0,0.04 -0.03,0.07 -0.07,0.07l-0.25 0c-0.04,0 -0.07,-0.03 -0.07,-0.07l0 -2.35c0,-0.05 0.04,-0.08 0.08,-0.08l0.04 0c0.13,0 0.24,0.09 0.26,0.21 0.18,-0.18 0.45,-0.3 0.75,-0.3l0 0c0.7,0 1.15,0.43 1.15,1.11zm4.16 -0.86l-0.11 0.19c-0.02,0.04 -0.06,0.06 -0.1,0.06 -0.02,0 -0.04,-0 -0.06,-0.01 -0.04,-0.02 -0.05,-0.03 -0.06,-0.03 -0.08,-0.04 -0.18,-0.05 -0.28,-0.05 -0.39,0 -0.69,0.31 -0.69,0.69l0 1.43c0,0.04 -0.03,0.08 -0.08,0.08l-0.25 0c-0.04,0 -0.08,-0.03 -0.08,-0.08l0 -2.36c0,-0.04 0.03,-0.08 0.08,-0.08l0.07 0c0.13,0 0.24,0.08 0.26,0.21 0.17,-0.17 0.42,-0.29 0.69,-0.29 0.01,-0 0.02,-0 0.03,-0 0.14,0 0.27,0.03 0.4,0.09 0.02,0.01 0.07,0.04 0.15,0.08 0.03,0.01 0.04,0.05 0.02,0.07zm-2.23 1.93c-0.02,-0.04 -0.06,-0.08 -0.11,-0.08 -0.02,-0 -0.04,0 -0.05,0.01 -0.05,0.02 -0.07,0.03 -0.08,0.03 -0.08,0.03 -0.15,0.04 -0.21,0.04 -0.29,0 -0.33,-0.15 -0.33,-0.45l0 -1.3 0.72 0c0.04,0 0.07,-0.03 0.07,-0.07l0 -0.2c0,-0.04 -0.03,-0.07 -0.07,-0.07l-0.72 0 0 -0.67c0,-0.04 -0.03,-0.08 -0.08,-0.08l-0.09 0c-0.13,0 -0.23,0.11 -0.23,0.23l0 0.51 -0.45 0c-0.04,0 -0.07,0.03 -0.07,0.08l0 0.2c0,0.04 0.03,0.07 0.07,0.07l0.45 0 0 1.3c0,0.56 0.24,0.84 0.73,0.84 0.1,0 0.21,-0.02 0.32,-0.06 0.03,-0.01 0.08,-0.03 0.16,-0.07 0.04,-0.02 0.05,-0.06 0.04,-0.1l-0.07 -0.17zm8.99 -0c-0.5,0 -0.87,-0.37 -0.87,-0.89 0,-0.51 0.36,-0.88 0.87,-0.88 0.61,0 0.89,0.46 0.89,0.89 0,0.43 -0.28,0.89 -0.89,0.89zm1.21 -2.09l-0.1 0c-0.14,0 -0.26,0.12 -0.26,0.26l0 0c-0.22,-0.22 -0.51,-0.34 -0.85,-0.34 -0.72,0 -1.27,0.55 -1.27,1.28 0,0.74 0.54,1.29 1.26,1.29 0.34,0 0.64,-0.12 0.86,-0.36l0 0.31c0,0.04 0.03,0.07 0.07,0.07l0.29 0c0.04,0 0.07,-0.03 0.07,-0.07l0 -2.36c0,-0.04 -0.03,-0.08 -0.08,-0.08zm-3.95 1.94c-0.51,0 -0.78,-0.41 -0.78,-0.81 0,-0.4 0.2,-0.82 0.78,-0.82 0.48,0 0.79,0.32 0.79,0.82 0,0.44 -0.36,0.81 -0.79,0.81zm0.67 0.17c0.32,-0.21 0.52,-0.59 0.52,-0.98 0,-0.32 -0.08,-0.58 -0.26,-0.79l0.18 -0.21c0.02,-0.02 0.02,-0.07 0,-0.09 -0.08,-0.11 -0.22,-0.14 -0.34,-0.08 -0.03,0.01 -0.05,0.04 -0.07,0.06l-0.06 0.07c-0.19,-0.12 -0.43,-0.18 -0.64,-0.18 -0.71,0 -1.18,0.49 -1.18,1.23 0,0.7 0.5,1.22 1.18,1.22 0.37,0 0.79,0.16 0.79,0.61 0,0.57 -0.61,0.62 -0.79,0.62 -0.35,0 -0.73,-0.14 -0.78,-0.53 -0,-0.01 -0,0 -0,-0.06 -0,-0.04 -0.03,-0.07 -0.08,-0.07l-0.25 0c-0.04,0 -0.07,0.03 -0.07,0.07 0,0.01 0,0.02 0,0.02 0,0.04 0,0.06 0,0.07 0.05,0.55 0.52,0.91 1.18,0.91 0.74,0 1.19,-0.39 1.19,-1.02 0,-0.38 -0.18,-0.67 -0.53,-0.85zm-23.89 -1.12l-0.08 -0.01c-0.27,-0.05 -0.6,-0.11 -0.61,-0.34 -0,-0.07 0.02,-0.13 0.07,-0.18 0.1,-0.1 0.3,-0.16 0.53,-0.16l0.02 0c0.18,0 0.38,0.02 0.57,0.14 0.01,0.01 0.04,0.03 0.08,0.06 0.02,0.02 0.05,0.03 0.08,0.03 0.03,0 0.06,-0.01 0.09,-0.04l0.1 -0.11c0.03,-0.03 0.04,-0.07 0.03,-0.1 -0.01,-0.03 -0.02,-0.05 -0.04,-0.07 -0.05,-0.05 -0.09,-0.08 -0.11,-0.09 -0.21,-0.15 -0.48,-0.22 -0.78,-0.22 -0.01,-0 -0.01,-0 -0.02,-0 -0.34,0 -0.63,0.1 -0.81,0.28 -0.12,0.12 -0.19,0.28 -0.19,0.47 0.01,0.55 0.55,0.64 0.98,0.71 0.47,0.08 0.69,0.15 0.69,0.37 -0.01,0.32 -0.45,0.36 -0.64,0.36 -0.19,0 -0.37,-0.04 -0.52,-0.13 -0.11,-0.06 -0.19,-0.15 -0.24,-0.21 -0.02,-0.03 -0.06,-0.04 -0.09,-0.04 -0.03,0 -0.06,0.01 -0.08,0.03l-0.12 0.11c-0.05,0.04 -0.05,0.11 -0.01,0.16 0.05,0.07 0.16,0.19 0.28,0.27 0.21,0.14 0.48,0.21 0.78,0.21 0.95,0 1.04,-0.56 1.05,-0.74 0.03,-0.6 -0.58,-0.7 -0.98,-0.77zm5.88 -0.81l-0.1 0.18c-0,0.01 -0.01,0.02 -0.02,0.02 -0.04,0.04 -0.1,0.04 -0.14,0.02 -0.04,-0.02 -0.05,-0.03 -0.06,-0.03 -0.08,-0.04 -0.17,-0.05 -0.27,-0.05 -0.39,0 -0.69,0.31 -0.69,0.69l0 1.35 0 0.08c0,0.04 -0.03,0.08 -0.08,0.08l-0.25 0c-0.04,0 -0.08,-0.03 -0.08,-0.08l0 -0.08 0 -2.28c0,-0.04 0.03,-0.08 0.08,-0.08l0.06 0c0.13,0 0.24,0.08 0.26,0.21 0.17,-0.17 0.42,-0.29 0.69,-0.29 0.01,-0 0.02,-0 0.03,-0 0.14,0 0.27,0.03 0.4,0.09 0.02,0.01 0.07,0.03 0.13,0.07 0.04,0.02 0.05,0.07 0.03,0.1zm2.56 -0.18l-0.22 0c-0.05,0 -0.09,0.01 -0.11,0.06l-0.76 1.84 -0.76 -1.83c-0.02,-0.04 -0.06,-0.06 -0.11,-0.06l-0.22 0c-0.02,0 -0.05,0.01 -0.06,0.03 -0.02,0.04 -0.03,0.07 -0.01,0.11l0.95 2.29c0.02,0.04 0.06,0.09 0.11,0.09l0.21 0c0.05,0 0.09,-0.05 0.11,-0.09l0.95 -2.28c0.02,-0.04 0.01,-0.07 -0.02,-0.11 -0.01,-0.02 -0.04,-0.03 -0.06,-0.03zm0.87 2.44c0,0.04 -0.03,0.07 -0.08,0.07l-0.25 0c-0.04,0 -0.07,-0.03 -0.07,-0.07l0 -2.4c0,-0.04 0.03,-0.08 0.07,-0.08l0.25 0c0.04,0 0.08,0.03 0.08,0.08l0 2.4z"/>
  <path class="fil1" d="M17.75 5.19c-0.51,-0.89 -1.5,-1.38 -2.72,-1.38 -1.83,0 -3.66,1.25 -4.38,2.88l-0.54 0c-0.49,0 -0.82,-0.55 -0.57,-0.97l0.01 -0.01c1.9,-3.12 6.91,-4.04 8.2,-0.52z"/>
  <path class="fil0" d="M17.75 5.19c0,0 0,0 0,0l1.51 0c-0.59,-1.68 -2.26,-2.82 -4.25,-2.82 -2.25,0 -4.42,1.36 -5.46,3.32 1.91,-3.11 6.9,-4.02 8.19,-0.51z"/>
  <path class="fil0" d="M10.7 9.48c0,-0 -0,-0 -0,-0l-1.52 0c0.59,1.7 2.26,2.81 4.24,2.81 2.23,0 4.38,-1.33 5.43,-3.26 -1.59,2.67 -6.61,4.09 -8.15,0.45z"/>
  <path class="fil0" d="M19.07 7.17c-0.22,-0.32 -0.59,-0.47 -1,-0.47l-7.43 0 -0 0 -0.54 0c-0.45,0 -0.77,-0.48 -0.61,-0.88 -0.1,0.2 -0.19,0.41 -0.27,0.63 -0.13,0.38 -0.08,0.77 0.14,1.08 0.22,0.32 0.59,0.49 1,0.49l7.43 0 0 0 0.51 0c0.47,0 0.77,0.53 0.58,0.94 0.12,-0.23 0.23,-0.48 0.32,-0.73 0.13,-0.38 0.08,-0.75 -0.14,-1.06z"/>
  <path class="fil1" d="M18.31 8.02l-0.51 0c-0.72,1.62 -2.55,2.88 -4.37,2.88 -1.21,0 -2.21,-0.52 -2.72,-1.41 1.55,3.65 6.58,2.21 8.16,-0.46 0,-0 0,-0.01 0.01,-0.01 0.25,-0.42 -0.07,-0.99 -0.56,-0.99z"/>
  <path class="fil0" d="M21.51 0l-0.47 0 -7.32 0c-3.79,0 -6.87,3.08 -6.87,6.87l0 7.32 0 0.47 0.47 0 7.32 0c3.79,0 6.87,-3.08 6.87,-6.87l0 -7.32 0 -0.47zm-0.47 0.47l0 7.32c0,3.53 -2.86,6.39 -6.39,6.39l-7.32 0 0 -7.32c0,-3.53 2.86,-6.39 6.39,-6.39l7.32 0z"/>
 </g>
</svg>
