<?xml version="1.0" encoding="UTF-8"?>
<!DOCTYPE svg PUBLIC "-//W3C//DTD SVG 1.1//EN" "http://www.w3.org/Graphics/SVG/1.1/DTD/svg11.dtd">
<!-- Creator: CorelDRAW 2019 (64-Bit) -->
<svg xmlns="http://www.w3.org/2000/svg" xml:space="preserve" width="31.6652mm" height="25.3583mm" version="1.1" style="shape-rendering:geometricPrecision; text-rendering:geometricPrecision; image-rendering:optimizeQuality; fill-rule:evenodd; clip-rule:evenodd"
viewBox="0 0 29.76 23.83"
 xmlns:xlink="http://www.w3.org/1999/xlink">
 <defs>
  <style type="text/css">
   <![CDATA[
    .fil0 {fill:#FEFEFE}
   ]]>
  </style>
 </defs>
 <g id="Capa_x0020_1">
  <metadata id="CorelCorpID_0Corel-Layer"/>
  <g id="_2094009947440">
   <path class="fil0" d="M0.48 1.95c0,1.53 0.93,0.45 1.09,0.9l0.03 3.08c-0.29,0.07 -1.35,0.36 -1.35,0.72 0,0.4 0.25,0.8 0.64,0.8 0.35,0 0.25,-0.13 0.64,-0.16l0.08 2.38c-0.02,0.38 -0.07,0.39 -0.08,0.8 -0.31,0.03 -0.49,0.13 -0.83,0.2 -0.32,0.07 -0.68,0.1 -0.68,0.43 0,1.46 1.27,0.69 1.38,0.65 0.69,-0.26 -0.04,0.38 1.52,-0.14l2.66 -0.68c0.46,-0.13 1.22,-0.39 1.7,-0.45 0.39,-0.05 0.65,-0 0.73,-0.38 0.12,-0.57 -0.55,-0.5 -0.91,-0.5 -0.03,-1.51 -1.86,-0.22 -3.82,0.24l0 -2.86c0.72,-0.49 1.96,-0.68 2.9,-0.84 0.56,-0.09 0.56,-0.09 0.68,-0.59 -0.22,-0.23 -0.54,-0.52 -0.95,-0.32 -0.25,-0.94 -1.16,-0.26 -2.63,0.08 0,-1.2 0.02,-1.93 -0.08,-3.1 0.25,-0.12 0.72,-0.23 1.02,-0.33l2.12 -0.58c0.54,-0.09 0.91,-0.02 0.91,-0.52 0,-0.27 -0.39,-0.48 -0.64,-0.48 -0.39,0 0.06,0.18 -0.36,0.04 -0.14,-0.05 -0.19,-0.18 -0.3,-0.26 -0.28,-0.2 -1.34,0.2 -1.69,0.33 -0.3,0.12 -0.49,0.21 -0.8,0.32 -0.29,0.1 -0.49,0.17 -0.78,0.25 -0.85,0.25 -0.4,0.09 -0.84,0.12 -0.53,0.05 -0.21,0.24 -0.67,0.44 -0.3,0.13 -0.69,0.05 -0.69,0.43z"/>
   <path class="fil0" d="M22.68 9.35l0.16 0 0 0.56 -0.08 0c0,-0.23 -0.01,-0.4 -0.08,-0.56zm1.19 -2.39c-0.05,-0.57 -0.32,-1.57 -0.32,-1.67 0,-0.28 1.02,-0.4 1.43,-0.4 0.27,0 0.31,0.06 0.56,0.08 -0.04,0.47 -0.5,0.74 -0.75,1.08 -0.32,0.43 -0.45,0.66 -0.92,0.91zm-2.47 0.72c-0.38,0.1 -0.45,0.37 -0.27,0.66 0.34,0.55 0.35,-0.18 0.67,1.09 0.21,0.87 0.28,1.67 0.87,2.07 0.19,-0.05 0.32,-0.08 0.48,-0.16 0.54,0.8 0.5,0.56 1.19,0.4 0,-0.45 -0.1,-0.58 -0.18,-1.25 -0.04,-0.28 -0.13,-0.98 -0.13,-1.3 2.22,0 2.65,0.59 4.35,1.46 0.48,0.24 0.78,0.46 1.3,0.21l0.08 -0.48c0,-0.73 -1.47,-1.48 -2.12,-1.7 -0.55,-0.19 -0.94,-0.24 -1.51,-0.4 -0.54,-0.15 -0.92,-0.42 -1.38,-0.52 0.23,-0.31 0.73,-0.31 1.35,-1.11 1.01,-1.32 1.52,-2.24 -0.73,-3.02 -0.97,-0.33 -1.55,-0.26 -2.45,0.08 -0.34,0.13 -0.68,0.32 -0.95,0.56 -0.62,0.58 -0.41,0.74 -0.48,0.92 -0.05,0.12 -0.39,0.22 -0.32,1.11 0.03,0.37 0.13,1 0.22,1.37z"/>
   <path class="fil0" d="M16.71 4.65c-0.11,0.08 0.17,0.08 -0.24,0.08 0.1,-0.07 -0.09,-0.05 0.24,-0.08zm0 0l2.31 -0.64c-0.01,-0.02 -0.05,-0.08 -0.05,-0.1 -0.04,-0.13 -0.14,0.07 0.13,-0.3 -0.99,-0.08 -0.44,-0.58 -3.53,0.21 -0.31,0.08 -0.56,0.12 -0.84,0.19 -0.66,0.16 -1.46,0.07 -1.34,0.78 0.06,0.38 0.33,0.35 0.63,0.5 -0.27,0.57 0.15,0.74 0.48,0.95 0,1 -0.3,2.82 -0.32,3.82 -0.01,0.42 0.04,0.29 -0.12,0.6 -0.4,0.78 0.28,1.12 0.73,1.05 0.29,-0.05 0.15,-0.16 0.56,-0.12 0.23,0.02 0.24,0.13 0.6,0.01 0.67,-0.23 0.73,-0.48 2.04,-0.75 0.8,-0.17 3.07,-0.43 3.21,-0.91 0.11,-0.37 -0.3,-0.64 -0.66,-0.64 -0.63,0 -0.48,0.28 -1.62,0.26 -0.32,-0 -0.2,-0.01 -0.54,0.01 -0.83,0.07 -1.64,0.31 -2.38,0.49 -0.03,-0.38 -0.03,-0.15 -0.01,-0.49 0.01,-0.24 0.01,-0.47 0.01,-0.71 0.26,-0.07 0.15,-0.08 0.45,-0.19 0.91,-0.35 3.24,-0.37 3.77,-1.16 -0.36,-1.53 -3.23,-0.31 -4.14,-0.24 0,-0.57 0.08,-0.88 0.08,-1.35l3.6 -0.61c0.95,-0.12 0.59,-0 1.09,-0.34 -0.04,-0.46 -0.19,-0.63 -0.57,-0.7 -0.75,-0.14 -2.71,0.38 -3.56,0.38z"/>
   <path class="fil0" d="M15.99 15.31c0,1.07 0.4,2.43 0.4,3.02 -1.32,0 -1.23,0.26 -1.99,0.32 0,-1.76 0.05,-2.99 -1.51,-2.63 -0.02,-0.9 -1.03,-1.01 -1.09,-0.31 -0.01,0.17 -0,0.12 0.02,0.25 0.04,0.22 0.07,0.28 0.11,0.46l0.56 3.02c-1.52,0.13 -0.69,1.35 0,1.35 0.31,0 0.24,-0.32 0.43,0.2 0.25,0.65 0.38,1.2 0.92,1.71 0.18,-0.04 0.18,-0.06 0.4,-0.08 0.07,-0.14 0.03,-0.42 0.56,-0.56 -0.03,-0.39 -0.32,-1.28 -0.27,-2.04 0.02,-0.28 -0.12,-0.13 0.89,-0.3 0.3,-0.05 0.75,-0.14 1.14,-0.14l0.21 1.31c0.13,0.65 0.5,2.47 1.14,2.75 0.2,0.09 0.27,-0.01 0.56,-0.08 0,-1.16 0.2,-0.36 -0.05,-2.1 -0.06,-0.39 -0,-0.76 -0.04,-1.15 -0.04,-0.35 -0.44,-4.04 -0.57,-4.36 -0.2,-0.52 -0.35,-0.32 -0.57,-0.63 -0.27,-0.39 -0.18,-0.67 -0.76,-0.67 -0.26,0 -0.48,0.35 -0.48,0.64z"/>
   <path class="fil0" d="M4.93 18.02c0,4.67 2.01,4.41 2.42,4.74 0.1,0.08 0.3,0.52 0.43,0.68 1.11,1.36 1.71,-1.26 2.19,-2.22 0.45,-0.89 0.56,-1.3 0.86,-2.16 0.18,-0.52 0.11,-0.28 0.07,-0.81 -0.1,0.02 -0.26,0.03 -0.27,0.03 -0.01,0 -0.03,0.01 -0.05,0.01 -0.39,0.13 -0.71,0.76 -0.9,1.12 -0.11,0.21 -0.2,0.39 -0.29,0.58 -0.21,0.42 -0.33,0.67 -0.61,1.06 -0.3,0.41 -0.54,0.54 -0.98,0.77 -0.06,-0.28 -0.27,-0.53 -0.4,-0.8 -1.1,-2.22 -1.33,-2.89 -0.6,-5.46 0.26,-0.91 1.14,-4.71 2.46,-2.37 0.31,0.56 0.19,0.79 0.47,1.12 0.45,0.56 0.86,0.21 0.86,-0.14 0,-0.67 -1.12,-2.71 -2.15,-2.71 -0.5,0 -0.84,-0.06 -1.24,0.43 -0.21,0.25 -0.3,0.49 -0.49,0.71 -0.27,0.31 -0.46,0.41 -0.71,0.8 -0.09,0.14 -0.04,0.07 -0.12,0.2 -0.23,0.39 -0.42,0.69 -0.58,1.25 -0.25,0.92 -0.36,2.01 -0.36,3.14z"/>
   <path class="fil0" d="M21.64 18.81c0,2.09 1.15,3.9 3.18,3.9 1.24,0 1.42,-0 2.53,-0.89 0.54,-0.43 0.28,-0.31 0.61,-0.75 0.4,-0.52 0.52,-0.46 0.52,-1.15 0,-0.29 -0.17,-0.24 -0.56,-0.24 -0.21,0 -0.43,0.35 -0.75,0.69 -0.36,0.39 -0.58,0.56 -1.08,0.83 -0.57,0.3 -0.6,0.41 -1.12,0.09 -0.2,-0.13 -0.32,-0.2 -0.52,-0.36 -0.44,-0.34 -1.5,-3.5 -0.49,-4.49 0.46,-0.46 0.95,-1.09 1.85,-0.53 0.53,0.33 0.78,0.64 1.24,-0.05 -0.17,-0.73 -0.73,-1.07 -1.46,-1.16 -0.35,-0.04 -1.72,0.19 -2.18,0.46 -0.67,0.4 -0.97,0.78 -1.26,1.44 -0.21,0.48 -0.5,1.56 -0.5,2.2z"/>
   <path class="fil0" d="M11.7 7.12c0,0.47 0.05,0.65 -0.16,0.95 0,-0.21 0.04,-0.77 0.16,-0.95zm-2.39 -0.32c0.32,0.36 1.34,3.4 1.35,3.58 -0.23,-0.17 -0.29,-0.49 -0.41,-0.78 -0.24,-0.6 -0.93,-2.3 -0.94,-2.8zm0 0l-0.09 -0.16 0.09 0.16zm2.39 0.32c0,-0.53 0.1,-1.87 0.48,-2.31 -0.01,0.36 -0.16,0.9 -0.22,1.22l-0.03 0.54c-0.03,0.33 -0,0.11 -0.08,0.29l-0.11 0.21c-0.01,0.01 -0.02,0.04 -0.03,0.05zm-0.8 1.43c-0.01,-0.02 -0.03,-0.06 -0.03,-0.05 -0,0.01 -0.02,-0.04 -0.03,-0.05 -0.01,-0.02 -0.04,-0.09 -0.05,-0.11 -0.29,-0.7 -0.69,-2.3 -1.29,-2.61 -0.38,-0.19 -0.26,-0.03 -0.47,-0.1 -0.27,-0.1 -0.07,-0.16 -0.43,-0.26 -0.39,0.28 -0.11,0.98 0.09,1.66 0.17,0.58 0.35,1.1 0.56,1.67 0.19,0.51 0.42,1.05 0.64,1.59 0.2,0.5 0.44,1.36 0.94,1.36 0.27,0 0.3,-0.3 0.32,-0.56 0.9,0.61 0.81,-0.38 1.01,-1.61l0.74 -3.88c0.2,-0.76 0.59,-1.24 -0.24,-1.43 0.39,-0.59 -0.22,-1.47 -1.01,0.1 -0.42,0.84 -0.5,1.84 -0.57,2.77 -0.05,0.54 -0.13,1.03 -0.17,1.5z"/>
   <path class="fil0" d="M18.78 15.08c0,0.85 0.48,3.79 0.6,5.13 0.02,0.2 -0.28,2.35 0.43,2.35 0.22,0 0.19,-0.06 0.24,-0.24 0.25,0.17 0.44,0.4 0.88,0.4 0.67,0 0.28,-0.72 0.25,-1.04l-0.01 -4.05c0,-0.46 -0.06,-0.59 -0.08,-0.95 -0.08,-1.68 -0.42,-1.34 -1.27,-1.27 -0.08,-1.01 -1.03,-0.79 -1.03,-0.32z"/>
  </g>
 </g>
</svg>
